<mxfile host="app.diagrams.net" modified="2021-07-12T04:59:09.828Z" agent="5.0 (Windows NT 10.0; Win64; x64) AppleWebKit/537.36 (KHTML, like Gecko) Chrome/91.0.4472.124 Safari/537.36" etag="iyDNKhqC2bZdjrcGReCH" version="14.8.5" type="github">
  <diagram id="nchmbJQbJLLKpgCDKy6r" name="Page-1">
    <mxGraphModel dx="1483" dy="781" grid="1" gridSize="10" guides="1" tooltips="1" connect="1" arrows="1" fold="1" page="1" pageScale="1" pageWidth="827" pageHeight="1169" math="0" shadow="0">
      <root>
        <mxCell id="0" />
        <mxCell id="1" parent="0" />
        <mxCell id="H9WTz5owHjXtexVp32W7-1" value="" style="group" vertex="1" connectable="0" parent="1">
          <mxGeometry x="40" y="40" width="540" height="840" as="geometry" />
        </mxCell>
        <mxCell id="H9WTz5owHjXtexVp32W7-2" value="Empleados con contrato ocacional" style="swimlane;horizontal=0;" vertex="1" parent="H9WTz5owHjXtexVp32W7-1">
          <mxGeometry width="540" height="840" as="geometry">
            <mxRectangle x="170" y="-90" width="30" height="220" as="alternateBounds" />
          </mxGeometry>
        </mxCell>
        <mxCell id="H9WTz5owHjXtexVp32W7-3" style="edgeStyle=orthogonalEdgeStyle;rounded=0;orthogonalLoop=1;jettySize=auto;html=1;exitX=0.5;exitY=1;exitDx=0;exitDy=0;entryX=0.5;entryY=0;entryDx=0;entryDy=0;" edge="1" parent="H9WTz5owHjXtexVp32W7-2" source="H9WTz5owHjXtexVp32W7-4" target="H9WTz5owHjXtexVp32W7-12">
          <mxGeometry relative="1" as="geometry" />
        </mxCell>
        <mxCell id="H9WTz5owHjXtexVp32W7-4" value="" style="ellipse;whiteSpace=wrap;html=1;aspect=fixed;strokeColor=#36393d;fillColor=#cdeb8b;" vertex="1" parent="H9WTz5owHjXtexVp32W7-2">
          <mxGeometry x="270" y="50" width="40" height="40" as="geometry" />
        </mxCell>
        <mxCell id="H9WTz5owHjXtexVp32W7-5" style="edgeStyle=orthogonalEdgeStyle;rounded=0;orthogonalLoop=1;jettySize=auto;html=1;exitX=0.5;exitY=1;exitDx=0;exitDy=0;entryX=0.5;entryY=0;entryDx=0;entryDy=0;" edge="1" parent="H9WTz5owHjXtexVp32W7-2" source="H9WTz5owHjXtexVp32W7-6" target="H9WTz5owHjXtexVp32W7-14">
          <mxGeometry relative="1" as="geometry" />
        </mxCell>
        <mxCell id="H9WTz5owHjXtexVp32W7-6" value="1. Gastos Corrientes Inversión&amp;nbsp;" style="rounded=1;whiteSpace=wrap;html=1;fillColor=#dae8fc;strokeColor=#6c8ebf;" vertex="1" parent="H9WTz5owHjXtexVp32W7-2">
          <mxGeometry x="80" y="230" width="120" height="60" as="geometry" />
        </mxCell>
        <mxCell id="H9WTz5owHjXtexVp32W7-7" value="1. Estudios" style="rounded=1;whiteSpace=wrap;html=1;fillColor=#dae8fc;strokeColor=#6c8ebf;" vertex="1" parent="H9WTz5owHjXtexVp32W7-2">
          <mxGeometry x="230" y="230" width="120" height="60" as="geometry" />
        </mxCell>
        <mxCell id="H9WTz5owHjXtexVp32W7-8" value="1. Obra Pública" style="rounded=1;whiteSpace=wrap;html=1;fillColor=#dae8fc;strokeColor=#6c8ebf;" vertex="1" parent="H9WTz5owHjXtexVp32W7-2">
          <mxGeometry x="380" y="230" width="120" height="60" as="geometry" />
        </mxCell>
        <mxCell id="H9WTz5owHjXtexVp32W7-9" style="edgeStyle=orthogonalEdgeStyle;rounded=0;orthogonalLoop=1;jettySize=auto;html=1;exitX=0.5;exitY=1;exitDx=0;exitDy=0;entryX=0.5;entryY=0;entryDx=0;entryDy=0;" edge="1" parent="H9WTz5owHjXtexVp32W7-2" source="H9WTz5owHjXtexVp32W7-12" target="H9WTz5owHjXtexVp32W7-6">
          <mxGeometry relative="1" as="geometry" />
        </mxCell>
        <mxCell id="H9WTz5owHjXtexVp32W7-10" style="edgeStyle=orthogonalEdgeStyle;rounded=0;orthogonalLoop=1;jettySize=auto;html=1;exitX=0.5;exitY=1;exitDx=0;exitDy=0;entryX=0.5;entryY=0;entryDx=0;entryDy=0;" edge="1" parent="H9WTz5owHjXtexVp32W7-2" source="H9WTz5owHjXtexVp32W7-12" target="H9WTz5owHjXtexVp32W7-7">
          <mxGeometry relative="1" as="geometry" />
        </mxCell>
        <mxCell id="H9WTz5owHjXtexVp32W7-11" style="edgeStyle=orthogonalEdgeStyle;rounded=0;orthogonalLoop=1;jettySize=auto;html=1;exitX=0.5;exitY=1;exitDx=0;exitDy=0;entryX=0.5;entryY=0;entryDx=0;entryDy=0;" edge="1" parent="H9WTz5owHjXtexVp32W7-2" source="H9WTz5owHjXtexVp32W7-12" target="H9WTz5owHjXtexVp32W7-8">
          <mxGeometry relative="1" as="geometry" />
        </mxCell>
        <mxCell id="H9WTz5owHjXtexVp32W7-12" value="1. Definir el área de Trabajo de acuerdo a la certificación presupuestaria." style="rounded=1;whiteSpace=wrap;html=1;fillColor=#dae8fc;strokeColor=#6c8ebf;" vertex="1" parent="H9WTz5owHjXtexVp32W7-2">
          <mxGeometry x="230" y="120" width="120" height="60" as="geometry" />
        </mxCell>
        <mxCell id="H9WTz5owHjXtexVp32W7-13" style="edgeStyle=orthogonalEdgeStyle;rounded=0;orthogonalLoop=1;jettySize=auto;html=1;exitX=0.5;exitY=1;exitDx=0;exitDy=0;entryX=0.5;entryY=0;entryDx=0;entryDy=0;" edge="1" parent="H9WTz5owHjXtexVp32W7-2" source="H9WTz5owHjXtexVp32W7-14" target="H9WTz5owHjXtexVp32W7-16">
          <mxGeometry relative="1" as="geometry" />
        </mxCell>
        <mxCell id="H9WTz5owHjXtexVp32W7-14" value="2. Elaboración del contrato de trabajo." style="rounded=1;whiteSpace=wrap;html=1;fillColor=#dae8fc;strokeColor=#6c8ebf;" vertex="1" parent="H9WTz5owHjXtexVp32W7-2">
          <mxGeometry x="230" y="360" width="120" height="60" as="geometry" />
        </mxCell>
        <mxCell id="H9WTz5owHjXtexVp32W7-15" style="edgeStyle=orthogonalEdgeStyle;rounded=0;orthogonalLoop=1;jettySize=auto;html=1;exitX=0.5;exitY=1;exitDx=0;exitDy=0;entryX=0.5;entryY=0;entryDx=0;entryDy=0;" edge="1" parent="H9WTz5owHjXtexVp32W7-2" source="H9WTz5owHjXtexVp32W7-16" target="H9WTz5owHjXtexVp32W7-18">
          <mxGeometry relative="1" as="geometry" />
        </mxCell>
        <mxCell id="H9WTz5owHjXtexVp32W7-16" value="3. Impresión del Contrato." style="rounded=1;whiteSpace=wrap;html=1;fillColor=#dae8fc;strokeColor=#6c8ebf;" vertex="1" parent="H9WTz5owHjXtexVp32W7-2">
          <mxGeometry x="230" y="460" width="120" height="60" as="geometry" />
        </mxCell>
        <mxCell id="H9WTz5owHjXtexVp32W7-17" style="edgeStyle=orthogonalEdgeStyle;rounded=0;orthogonalLoop=1;jettySize=auto;html=1;exitX=0.5;exitY=1;exitDx=0;exitDy=0;entryX=0.5;entryY=0;entryDx=0;entryDy=0;" edge="1" parent="H9WTz5owHjXtexVp32W7-2" source="H9WTz5owHjXtexVp32W7-18" target="H9WTz5owHjXtexVp32W7-20">
          <mxGeometry relative="1" as="geometry" />
        </mxCell>
        <mxCell id="H9WTz5owHjXtexVp32W7-18" value="4. Firma del director." style="rounded=1;whiteSpace=wrap;html=1;fillColor=#dae8fc;strokeColor=#6c8ebf;" vertex="1" parent="H9WTz5owHjXtexVp32W7-2">
          <mxGeometry x="230" y="560" width="120" height="60" as="geometry" />
        </mxCell>
        <mxCell id="H9WTz5owHjXtexVp32W7-19" style="edgeStyle=orthogonalEdgeStyle;rounded=0;orthogonalLoop=1;jettySize=auto;html=1;exitX=0.5;exitY=1;exitDx=0;exitDy=0;entryX=0.5;entryY=0;entryDx=0;entryDy=0;" edge="1" parent="H9WTz5owHjXtexVp32W7-2" source="H9WTz5owHjXtexVp32W7-20" target="H9WTz5owHjXtexVp32W7-21">
          <mxGeometry relative="1" as="geometry" />
        </mxCell>
        <mxCell id="H9WTz5owHjXtexVp32W7-20" value="5. Enviar copia a la dirección general financiera, al analista de nómina y al archivo." style="rounded=1;whiteSpace=wrap;html=1;fillColor=#dae8fc;strokeColor=#6c8ebf;" vertex="1" parent="H9WTz5owHjXtexVp32W7-2">
          <mxGeometry x="230" y="650" width="130" height="70" as="geometry" />
        </mxCell>
        <mxCell id="H9WTz5owHjXtexVp32W7-21" value="" style="ellipse;whiteSpace=wrap;html=1;aspect=fixed;fillColor=#f8cecc;strokeColor=#F50800;" vertex="1" parent="H9WTz5owHjXtexVp32W7-2">
          <mxGeometry x="275" y="760" width="40" height="40" as="geometry" />
        </mxCell>
        <mxCell id="H9WTz5owHjXtexVp32W7-22" value="ANALISTA TALENTO HUMANO" style="swimlane;horizontal=0;" vertex="1" parent="H9WTz5owHjXtexVp32W7-1">
          <mxGeometry x="20" width="520" height="840" as="geometry">
            <mxRectangle x="190" y="-90" width="30" height="200" as="alternateBounds" />
          </mxGeometry>
        </mxCell>
        <mxCell id="H9WTz5owHjXtexVp32W7-23" style="edgeStyle=orthogonalEdgeStyle;rounded=0;orthogonalLoop=1;jettySize=auto;html=1;exitX=0.5;exitY=1;exitDx=0;exitDy=0;" edge="1" parent="H9WTz5owHjXtexVp32W7-1" source="H9WTz5owHjXtexVp32W7-7">
          <mxGeometry relative="1" as="geometry">
            <mxPoint x="290" y="360" as="targetPoint" />
          </mxGeometry>
        </mxCell>
        <mxCell id="H9WTz5owHjXtexVp32W7-24" style="edgeStyle=orthogonalEdgeStyle;rounded=0;orthogonalLoop=1;jettySize=auto;html=1;exitX=0.5;exitY=1;exitDx=0;exitDy=0;" edge="1" parent="H9WTz5owHjXtexVp32W7-1" source="H9WTz5owHjXtexVp32W7-8">
          <mxGeometry relative="1" as="geometry">
            <mxPoint x="290" y="360" as="targetPoint" />
          </mxGeometry>
        </mxCell>
      </root>
    </mxGraphModel>
  </diagram>
</mxfile>
